<svg xmlns="http://www.w3.org/2000/svg" width="62" height="82" viewBox="0 0 62 82">
    <defs>
        <linearGradient id="ja6s5uxxsa" x1="50%" x2="50%" y1="0%" y2="100%">
            <stop offset="0%" stop-color="#D9F1FF"/>
            <stop offset="100%" stop-color="#FFF"/>
        </linearGradient>
    </defs>
    <g fill="none" fill-rule="evenodd">
        <g>
            <g>
                <g>
                    <path fill="#D9F1FF" d="M41.653.001v59.166c0 1.114-.889 2.018-1.985 2.018H.001" transform="translate(-1329 -615) translate(1330 616) translate(17.851 18.154)"/>
                    <path stroke="#09E" stroke-linecap="round" stroke-linejoin="round" stroke-width="2" d="M41.653.001v59.166c0 1.114-.889 2.018-1.985 2.018H.001" transform="translate(-1329 -615) translate(1330 616) translate(17.851 18.154)"/>
                </g>
                <g>
                    <path fill="#D9F1FF" d="M41.653.001v59.166c0 1.114-.889 2.018-1.985 2.018H.001" transform="translate(-1329 -615) translate(1330 616) translate(9.917 10.085)"/>
                    <path stroke="#09E" stroke-linecap="round" stroke-linejoin="round" stroke-width="2" d="M41.653.001v59.166c0 1.114-.889 2.018-1.985 2.018H.001" transform="translate(-1329 -615) translate(1330 616) translate(9.917 10.085)"/>
                </g>
                <path fill="url(#ja6s5uxxsa)" d="M41.652 0H1.985C.889 0 0 .904 0 2.018v43.606l9.98 17.578h31.672c1.096 0 1.984-.904 1.984-2.018V2.018C43.636.904 42.748 0 41.652 0" transform="translate(-1329 -615) translate(1330 616)"/>
                <path stroke="#09E" stroke-linecap="round" stroke-linejoin="round" stroke-width="2" d="M41.652 0H1.985C.889 0 0 .904 0 2.018v43.606l9.98 17.578h31.672c1.096 0 1.984-.904 1.984-2.018V2.018C43.636.904 42.748 0 41.652 0z" transform="translate(-1329 -615) translate(1330 616)"/>
                <path fill="#09E" d="M9.98 47.643c0-1.115-.89-2.019-1.985-2.019H0l9.98 17.578v-15.56zM21.818 6.051L24.504 11.584 30.508 12.472 26.163 16.779 27.189 22.86 21.818 19.989 16.448 22.86 17.474 16.779 13.128 12.472 19.133 11.584z" transform="translate(-1329 -615) translate(1330 616)"/>
                <path stroke="#09E" stroke-linecap="round" stroke-linejoin="round" stroke-width="2" d="M21.818 6.051L24.504 11.584 30.508 12.472 26.163 16.779 27.189 22.86 21.818 19.989 16.448 22.86 17.474 16.779 13.128 12.472 19.133 11.584zM6.612 32.273L37.025 32.273M6.612 38.997L37.025 38.997M16.529 45.721L37.025 45.721M16.529 52.444L37.025 52.444" transform="translate(-1329 -615) translate(1330 616)"/>
            </g>
        </g>
    </g>
</svg>
